<?xml version="1.0" encoding="UTF-8" standalone="no"?>
<!-- Generator: Adobe Illustrator 22.0.1, SVG Export Plug-In . SVG Version: 6.00 Build 0)  -->
<svg xmlns:dc="http://purl.org/dc/elements/1.1/" xmlns:cc="http://creativecommons.org/ns#" xmlns:rdf="http://www.w3.org/1999/02/22-rdf-syntax-ns#" xmlns:svg="http://www.w3.org/2000/svg" xmlns="http://www.w3.org/2000/svg" xmlns:sodipodi="http://sodipodi.sourceforge.net/DTD/sodipodi-0.dtd" xmlns:inkscape="http://www.inkscape.org/namespaces/inkscape" version="1.1" id="Layer_1" x="0px" y="0px" viewBox="0 0 1607.2 314.1" xml:space="preserve" sodipodi:docname="nano-logo-cropped.svg" width="1607.2" height="314.09998" inkscape:version="0.92.4 (5da689c313, 2019-01-14)"><metadata id="metadata3730"><rdf:RDF><cc:Work rdf:about=""><dc:format>image/svg+xml</dc:format><dc:type rdf:resource="http://purl.org/dc/dcmitype/StillImage"/><dc:title/></cc:Work></rdf:RDF></metadata><defs id="defs3728"/><sodipodi:namedview pagecolor="#ffffff" bordercolor="#666666" borderopacity="1" objecttolerance="10" gridtolerance="10" guidetolerance="10" inkscape:pageopacity="0" inkscape:pageshadow="2" inkscape:window-width="1856" inkscape:window-height="1057" id="namedview3726" showgrid="false" inkscape:zoom="0.4804542" inkscape:cx="755.86146" inkscape:cy="-59.76094" inkscape:window-x="56" inkscape:window-y="-8" inkscape:window-maximized="1" inkscape:current-layer="Layer_1"/>
<style type="text/css" id="style3713">
	.st0{fill:#4A90E2;}
	.st1{fill:#000034;}
	.st2{fill:#FFFFFF;}
</style>
<path class="st1" d="m 814.79995,58.050708 c -2.4,0 -4.4,0.8 -5.9,2.499992 -1.5,1.699992 -2.2,3.799984 -2.2,6.399972 V 226.54938 l -121.7,-164.298688 c -1.9,-2.799988 -4.3,-4.199984 -7.2,-4.199984 -2.8,0 -5,0.8 -6.6,2.499992 -1.6,1.699992 -2.4,3.799984 -2.4,6.399972 V 248.34929 c 0,2.79999 0.6,4.99998 1.9,6.59998 1.3,1.59999 3.3,2.39999 6.1,2.39999 2.4,0 4.4,-0.8 5.9,-2.49999 1.5,-1.7 2.2,-3.79999 2.2,-6.39998 V 88.449932 l 122,164.699338 c 2.2,2.79999 4.7,4.19999 7.5,4.19999 2.6,0 4.6,-0.8 6.1,-2.49999 1.5,-1.7 2.2,-3.79999 2.2,-6.39998 V 66.950672 c 0,-2.799988 -0.7,-4.99998 -2.1,-6.499972 -1.2,-1.599992 -3.2,-2.399992 -5.8,-2.399992 z M 1454.3,56.650716 c -55.4,0 -100.4,44.999174 -100.4,100.398954 0,55.39977 45,100.39959 100.4,100.39959 55.4,0 100.4,-44.99982 100.4,-100.39959 0,-55.39978 -45.1,-100.398954 -100.4,-100.398954 z m 0,184.398604 c -46.3,0 -84,-37.69985 -84,-83.99965 0,-46.29982 37.7,-83.999022 84,-83.999022 46.3,0 84,37.699202 84,83.999022 0,46.2998 -37.7,83.99965 -84,83.99965 z M 991.49995,63.950684 c -0.7,-1.899992 -2,-3.299984 -3.8,-4.49998 -1.8,-1.099996 -3.7,-1.699992 -5.7,-1.699992 -4.5,0 -7.5,1.999992 -9.2,6.099976 l -81.4,182.798612 c -0.4,0.7 -0.6,1.79999 -0.6,3.09999 0,2.19999 0.8,3.99998 2.4,5.39998 1.6,1.39999 3.5,2.09999 5.7,2.09999 3.5,0 6.1,-1.79999 7.8,-5.29998 l 21.5,-48.49981 H 1036.3 l 21.2,48.49981 c 0.7,1.69999 1.8,2.99999 3.2,3.89999 1.4,0.89999 2.8,1.39999 4.3,1.39999 2.2,0 4.2,-0.7 5.9,-2.09999 1.7,-1.4 2.5,-3.09999 2.5,-5.09998 0,-1.1 -0.3,-2.19999 -0.8,-3.29999 z m -56.9,124.498856 47.6,-107.79892 L 1029.6,188.44954 Z M 1287.1,58.050708 c -2.4,0 -4.4,0.8 -5.8,2.499992 -1.5,1.699992 -2.2,3.799984 -2.2,6.399972 V 226.54938 L 1157.3,62.150692 c -1.9,-2.799988 -4.3,-4.199984 -7.2,-4.199984 -2.8,0 -5,0.8 -6.6,2.499992 -1.6,1.699992 -2.4,3.799984 -2.4,6.399976 V 248.24929 c 0,2.79999 0.6,4.99998 1.9,6.59998 1.3,1.59999 3.3,2.39999 6.1,2.39999 2.4,0 4.4,-0.8 5.9,-2.49999 1.5,-1.7 2.2,-3.79999 2.2,-6.39998 V 88.449932 l 122,164.699338 c 2.2,2.79999 4.7,4.19999 7.5,4.19999 2.6,0 4.6,-0.8 6.1,-2.49999 1.5,-1.7 2.2,-3.79999 2.2,-6.39998 V 66.950672 c 0,-2.799988 -0.7,-4.99998 -2.1,-6.499972 -1.2,-1.599992 -3.2,-2.399992 -5.8,-2.399992 z" id="path3715" inkscape:connector-curvature="0" style="fill:#000034"/>
<g id="g3723" transform="translate(-72.900048,-228.05002)">
	<path class="st0" d="m 391.2,385.1 c 0,18.4 -14.9,33.2 -33.2,33.2 -18.3,0 -33.2,-14.9 -33.2,-33.2 0,-24.9 -8.3,-33.2 -33.2,-33.2 -24.9,0 -33.2,8.3 -33.2,33.2 0,18.4 -14.9,33.2 -33.2,33.2 -18.3,0 -33.2,-14.9 -33.2,-33.2 0,-18.4 14.9,-33.2 33.2,-33.2 24.9,0 33.2,-8.3 33.2,-33.2 0,-18.4 14.9,-33.2 33.2,-33.2 18.3,0 33.2,14.9 33.2,33.2 0,24.9 8.3,33.2 33.2,33.2 18.4,0 33.2,14.8 33.2,33.2 z" id="path3717" inkscape:connector-curvature="0" style="fill:#4a90e2"/>
	<circle class="st0" cx="158.60001" cy="451.60001" r="33.200001" id="circle3719" style="fill:#4a90e2"/>
	<path class="st0" d="m 590.7,318.6 c 0,18.4 -14.9,33.2 -33.2,33.2 -24.9,0 -33.2,8.3 -33.2,33.2 0,18.4 -14.9,33.2 -33.2,33.2 -24.9,0 -33.2,8.3 -33.2,33.2 0,18.4 -14.9,33.2 -33.2,33.2 -18.3,0 -33.2,-14.9 -33.2,-33.2 0,-18.4 14.9,-33.2 33.2,-33.2 24.9,0 33.2,-8.3 33.2,-33.2 0,-18.4 14.9,-33.2 33.2,-33.2 24.9,0 33.2,-8.3 33.2,-33.2 0,-18.4 14.9,-33.2 33.2,-33.2 18.3,0 33.2,14.9 33.2,33.2 z" id="path3721" inkscape:connector-curvature="0" style="fill:#4a90e2"/>
</g>
</svg>